<?xml version="1.0" encoding="utf-8"?>
<!-- Generator: Adobe Illustrator 16.0.0, SVG Export Plug-In . SVG Version: 6.00 Build 0)  -->
<!DOCTYPE svg PUBLIC "-//W3C//DTD SVG 1.1//EN" "http://www.w3.org/Graphics/SVG/1.1/DTD/svg11.dtd">
<svg version="1.1" id="图层_1" xmlns="http://www.w3.org/2000/svg" xmlns:xlink="http://www.w3.org/1999/xlink" x="0px" y="0px"
	 width="212px" height="205px" viewBox="0 0 212 205" enable-background="new 0 0 212 205" xml:space="preserve">
<path fill="#FFFFFF" stroke="#E2E2E2" stroke-miterlimit="10" d="M160.063,172.529l-51.855-68.168
	c-3.497-4.598-5.426-10.325-5.426-16.127V0.989H62.358v87.245c0,5.8-1.926,11.527-5.426,16.127L5.078,172.529
	c-4.61,6.057-5.369,14.07-1.981,20.9c3.342,6.738,10.056,10.929,17.522,10.929H144.52c7.463,0,14.18-4.19,17.521-10.929
	C165.43,186.6,164.67,178.586,160.063,172.529"/>
<path fill="#F0B04E" d="M111.215,124.184H53.922l-41.25,54.223c-2.378,3.129-2.766,7.104-1.041,10.645
	c1.721,3.536,5.086,5.647,8.991,5.647H144.52c3.9,0,7.264-2.111,8.984-5.647c1.73-3.54,1.338-7.516-1.035-10.645L111.215,124.184z"
	/>
<path fill="#F0B04E" d="M84.456,82.465c0,2.677-2.168,4.845-4.845,4.845c-2.675,0-4.845-2.168-4.845-4.845
	c0-2.677,2.17-4.846,4.845-4.846C82.288,77.619,84.456,79.788,84.456,82.465"/>
<path fill="#F0B04E" d="M90.633,32.665c0,3.413-2.766,6.176-6.176,6.176c-3.413,0-6.176-2.763-6.176-6.176s2.763-6.176,6.176-6.176
	C87.867,26.488,90.633,29.251,90.633,32.665"/>
<path fill="#F0B04E" d="M102.987,110.346c0,3.414-2.766,6.177-6.176,6.177s-6.176-2.763-6.176-6.177
	c0-3.409,2.766-6.175,6.176-6.175S102.987,106.937,102.987,110.346"/>
<path fill="#FFFFFF" stroke="#E0E0E2" stroke-miterlimit="10" d="M210.945,0.987h-6.588h-57.066h-6.588V16.7h6.588v108.514
	c0,15.733,12.795,28.535,28.535,28.535c15.73,0,28.531-12.802,28.531-28.535V16.7h6.588V0.987z"/>
<path fill="#EC6D58" d="M156.863,43.457v81.484c0,10.558,8.502,19.15,18.963,19.15c10.453,0,18.959-8.593,18.959-19.15V43.457
	H156.863z"/>
<path fill="#FFFFFF" d="M175.822,117.47c0,3.934-3.186,7.124-7.119,7.124c-3.936,0-7.123-3.19-7.123-7.124
	c0-3.935,3.188-7.124,7.123-7.124C172.637,110.346,175.822,113.535,175.822,117.47"/>
<path fill="#FFFFFF" d="M189.035,77.619c0,3.979-3.227,7.206-7.205,7.206c-3.986,0-7.209-3.226-7.209-7.206
	c0-3.979,3.223-7.205,7.209-7.205C185.809,70.414,189.035,73.64,189.035,77.619"/>
<path fill="#FFFFFF" d="M173.633,54.199c0,1.857-1.504,3.364-3.363,3.364s-3.365-1.506-3.365-3.364c0-1.857,1.506-3.367,3.365-3.367
	S173.633,52.342,173.633,54.199"/>
<rect x="56.634" y="-0.01" fill="#E6E8ED" width="51.87" height="12.822"/>
</svg>
