<?xml version="1.0" encoding="utf-8"?>
<!-- Generator: Adobe Illustrator 16.0.0, SVG Export Plug-In . SVG Version: 6.00 Build 0)  -->
<!DOCTYPE svg PUBLIC "-//W3C//DTD SVG 1.1//EN" "http://www.w3.org/Graphics/SVG/1.1/DTD/svg11.dtd">
<svg version="1.1" id="图层_1" xmlns="http://www.w3.org/2000/svg" xmlns:xlink="http://www.w3.org/1999/xlink" x="0px" y="0px"
	 width="185px" height="320px" viewBox="0 0 185 320" enable-background="new 0 0 185 320" xml:space="preserve">
<path fill="#2A3A4D" d="M152.736,31.167l-30.702-14.32c-0.978-0.455-1.398-1.62-0.943-2.597l2.229-4.781
	c0.456-0.978,1.621-1.402,2.597-0.947l30.704,14.324c0.976,0.455,1.401,1.616,0.946,2.595l-2.233,4.779
	C154.877,31.2,153.717,31.623,152.736,31.167"/>
<path fill="#CDD4DE" d="M113.062,102.599c0-9.6,7.778-17.382,17.381-17.382c2.764,0,5.335,0.703,7.655,1.848l4.404-9.445
	L93.02,54.537l-32.384,69.423l49.488,23.083l13.319-28.552C117.334,115.794,113.062,109.706,113.062,102.599"/>
<rect x="90.458" y="61.994" transform="matrix(0.9063 0.4227 -0.4227 0.9063 38.9714 -43.5856)" fill="#2A3A4D" width="54.606" height="8.168"/>
<path fill="#596978" d="M178.386,147.298l-0.004-0.007c-2.117-7.42-5.199-14.527-9.167-21.118
	c-5.355-8.935-12.178-16.81-20.278-23.406l-2.936-2.391l-0.383,3.77c-0.434,4.26-2.54,8.028-5.934,10.617l-1.877,1.429l1.688,1.652
	c5.332,5.217,9.771,11.166,13.205,17.673c2.817,5.329,4.913,10.98,6.235,16.809c1.489,6.581,2.007,13.364,1.489,19.589
	c-0.064,0.707-0.116,1.449-0.172,2.193c-0.084,1.232-0.17,2.465-0.331,3.479l-0.991,5.047c-0.146,0.953-0.471,1.955-0.791,2.965
	c-0.21,0.678-0.421,1.361-0.58,1.967l-0.707,2.432l-1.07,2.594c-2.59,6.693-6.396,13.057-11.011,18.402
	c-4.831,5.686-10.241,10.424-16.07,14.082c-5.766,3.535-12.113,6.314-18.788,8.23c-6.693,1.637-13.147,2.404-19.083,2.309
	l-1.39,0.006l-3.195-0.158c-0.579-0.066-1.116-0.125-1.65-0.176c-0.791-0.084-1.565-0.158-2.503-0.316
	c-2.476-0.328-5.03-0.85-8.009-1.623c-8.126-2.164-15.704-5.801-22.514-10.801c-2.5-1.873-4.312-3.447-5.383-4.43l-3.347-3.15
	l-21.38,23.127l4.369,3.691c2.49,2.041,5.264,4.074,8.26,6.064c6.687,4.373,17.631,10.256,31.793,13.447l1.1,0.254l17.241-17.246
	l18.167,18.164l1.04-0.18c4.773-0.809,9.525-1.938,14.176-3.383c9.099-3.119,17.59-7.4,25.256-12.73
	c7.744-5.486,14.735-12.307,20.76-20.266c5.81-7.582,10.467-16.436,13.461-25.578l1.185-3.48l0.836-3.43
	c0.159-0.76,0.342-1.494,0.522-2.227c0.369-1.492,0.754-3.039,0.958-4.738l0.911-7.145c0.14-1.506,0.166-2.842,0.183-4.174
	c0.014-0.674,0.02-1.352,0.055-2.086C181.937,164.473,180.84,156.051,178.386,147.298"/>
<polygon fill="#31495D" points="84.226,238.016 15.025,307.215 153.427,307.215 "/>
<path fill="#2A3A4D" d="M84.222,275.479c-7.038,0-12.766-5.725-12.766-12.764c0-7.041,5.728-12.766,12.766-12.766
	c7.043,0,12.769,5.725,12.769,12.766C96.991,269.754,91.266,275.479,84.222,275.479"/>
<path fill="#2A3A4D" d="M81.184,231.438L8.649,203.176c-3.304-1.283-4.938-5.006-3.65-8.309l0.768-1.969
	c1.287-3.305,5.006-4.939,8.311-3.65l72.536,28.26c3.305,1.287,4.938,5.006,3.653,8.311l-0.767,1.969
	C88.211,231.092,84.489,232.725,81.184,231.438"/>
<path fill="#2A3A4D" d="M54.006,120.867c-6.752,14.481,1.818,32.769,19.143,40.85c17.326,8.084,36.848,2.9,43.602-11.582
	L54.006,120.867z"/>
<path fill="#31495D" d="M150.521,102.599c0,11.091-8.99,20.077-20.078,20.077s-20.076-8.986-20.076-20.077
	c0-11.088,8.988-20.079,20.076-20.079S150.521,91.511,150.521,102.599"/>
<path fill="#2A3A4D" d="M140.782,102.599c0,5.711-4.629,10.341-10.34,10.341c-5.713,0-10.342-4.629-10.342-10.341
	c0-5.708,4.629-10.341,10.342-10.341C136.153,92.258,140.782,96.891,140.782,102.599"/>
</svg>
