<?xml version="1.0" encoding="utf-8"?>
<!-- Generator: Adobe Illustrator 16.0.0, SVG Export Plug-In . SVG Version: 6.00 Build 0)  -->
<!DOCTYPE svg PUBLIC "-//W3C//DTD SVG 1.1//EN" "http://www.w3.org/Graphics/SVG/1.1/DTD/svg11.dtd">
<svg version="1.1" id="图层_1" xmlns="http://www.w3.org/2000/svg" xmlns:xlink="http://www.w3.org/1999/xlink" x="0px" y="0px"
	 width="210px" height="155px" viewBox="0 0 210 155" enable-background="new 0 0 210 155" xml:space="preserve">
<path fill="#31495D" d="M63.699,145.011c-14.396,0.015-25.924-11.593-25.834-25.831c-0.089-14.244,11.439-25.852,25.834-25.832
	h142.433v-9.988H39.689c-19.783,0-35.82,16.035-35.82,35.82c0,19.779,16.037,35.82,35.82,35.82h166.442v-9.989H63.699z"/>
<path fill="#E6E8ED" d="M39.688,145.011c-14.395,0.015-25.923-11.593-25.831-25.831c-0.092-14.244,11.436-25.852,25.831-25.832
	h166.444c-6.852,16.543-6.852,35.121,0,51.663H39.688z"/>
<path fill="#57B6DD" d="M146.302,10.945c14.396-0.013,25.921,11.592,25.832,25.832c0.089,14.246-11.437,25.851-25.832,25.831H3.869
	v9.991h166.442c19.782,0,35.82-16.038,35.82-35.822c0-19.78-16.038-35.821-35.82-35.821H3.869v9.989H146.302z"/>
<path fill="#E6E8ED" d="M170.312,10.945c14.396-0.013,25.921,11.592,25.831,25.832c0.09,14.246-11.436,25.851-25.831,25.831H3.868
	c6.853-16.54,6.853-35.12,0-51.663H170.312z"/>
</svg>
