<svg t="1555845970694" class="icon" viewBox="0 0 1024 1024" version="1.1" xmlns="http://www.w3.org/2000/svg" p-id="4962" height="200" width="200"><path d="M966.4 691.2h-102.4V486.4c0-19.2-12.8-32-32-32H544V332.8h102.4c19.2 0 32-12.8 32-32V32c0-19.2-12.8-32-32-32H377.6c-19.2 0-32 12.8-32 32v268.8c0 19.2 12.8 32 32 32h102.4v121.6H192c-19.2 0-32 12.8-32 32v204.8H57.6c-19.2 0-32 12.8-32 32v268.8c0 19.2 12.8 32 32 32h268.8c19.2 0 32-12.8 32-32v-268.8c0-19.2-12.8-32-32-32H224V518.4h576v172.8h-102.4c-19.2 0-32 12.8-32 32v268.8c0 19.2 12.8 32 32 32h268.8c19.2 0 32-12.8 32-32v-268.8c0-19.2-19.2-32-32-32zM409.6 64h204.8v204.8H409.6V64zM294.4 960H89.6v-204.8h204.8V960z m640 0h-204.8v-204.8h204.8V960z" fill="#ffffff" p-id="4963"></path></svg>