<?xml version="1.0" encoding="utf-8"?>
<!-- Generator: Adobe Illustrator 16.0.0, SVG Export Plug-In . SVG Version: 6.00 Build 0)  -->
<!DOCTYPE svg PUBLIC "-//W3C//DTD SVG 1.1//EN" "http://www.w3.org/Graphics/SVG/1.1/DTD/svg11.dtd">
<svg version="1.1" id="图层_1" xmlns="http://www.w3.org/2000/svg" xmlns:xlink="http://www.w3.org/1999/xlink" x="0px" y="0px"
	 width="230px" height="180px" viewBox="0 0 230 180" enable-background="new 0 0 230 180" xml:space="preserve">
<rect x="13.408" y="2.486" fill="#31495D" width="204.282" height="143.701"/>
<rect x="25.287" y="13.871" fill="#FFFFFF" width="180.524" height="120.93"/>
<path fill="#2A3A4D" d="M147.795,154.643l-0.178,1.197c-0.002,0.016-0.201,1.316-0.695,2.912c-1.039,3.387-3.318,5.572-5.801,5.572
	H89.986c-2.515,0-4.896-2.389-5.927-5.955c-0.402-1.41-0.572-2.488-0.578-2.529l-0.18-1.203H1.095l0.366,1.709
	c0.029,0.115,0.635,2.908,2.165,6.557C7.962,173.291,18.093,180,29.433,180h172.252c11.039,0,21-6.326,25.365-16.119
	c1.836-4.115,2.551-7.398,2.582-7.535l0.367-1.709L147.795,154.643z"/>
<rect x="35.26" y="25.635" fill="#CDD4DE" width="75.066" height="55.86"/>
<path fill="#EC6D58" d="M72.794,37.553c-8.831,0-16.012,7.187-16.012,16.012c0,8.831,7.181,16.015,16.012,16.015
	c8.829,0,16.007-7.184,16.007-16.015C88.801,44.74,81.623,37.553,72.794,37.553"/>
<polygon fill="#FFFFFF" points="67.572,43.707 67.572,63.925 82.504,53.814 "/>
<rect x="35.26" y="90.592" fill="#57B6DD" width="14.289" height="14.291"/>
<rect x="54.817" y="92.408" fill="#E6E8ED" width="54.906" height="2.859"/>
<rect x="54.817" y="100.203" fill="#E6E8ED" width="35.25" height="2.865"/>
<rect x="35.26" y="111.027" fill="#F0B04E" width="14.289" height="14.289"/>
<rect x="54.817" y="112.842" fill="#E6E8ED" width="54.906" height="2.863"/>
<rect x="54.817" y="120.643" fill="#E6E8ED" width="35.25" height="2.859"/>
<rect x="121.516" y="25.988" fill="#2A3A4D" width="14.291" height="14.289"/>
<rect x="142.086" y="27.802" fill="#E6E8ED" width="54.904" height="2.86"/>
<rect x="142.084" y="35.603" fill="#E6E8ED" width="35.25" height="2.857"/>
<rect x="121.516" y="47.247" fill="#62C0B2" width="14.291" height="14.289"/>
<rect x="142.086" y="49.061" fill="#E6E8ED" width="54.904" height="2.859"/>
<rect x="142.084" y="56.859" fill="#E6E8ED" width="35.25" height="2.862"/>
<rect x="121.516" y="68.508" fill="#87D0F1" width="14.291" height="14.289"/>
<rect x="142.086" y="70.322" fill="#E6E8ED" width="54.904" height="2.863"/>
<rect x="142.084" y="78.121" fill="#E6E8ED" width="35.25" height="2.862"/>
<rect x="121.516" y="89.767" fill="#EC6D58" width="14.291" height="14.29"/>
<rect x="142.086" y="91.582" fill="#E6E8ED" width="54.904" height="2.859"/>
<rect x="142.084" y="99.383" fill="#E6E8ED" width="35.25" height="2.855"/>
<rect x="121.516" y="111.027" fill="#CDD4DE" width="14.291" height="14.289"/>
<rect x="142.086" y="112.842" fill="#E6E8ED" width="54.904" height="2.863"/>
<rect x="142.084" y="120.643" fill="#E6E8ED" width="35.25" height="2.859"/>
</svg>
