<?xml version="1.0" encoding="utf-8"?>
<!-- Generator: Adobe Illustrator 16.0.0, SVG Export Plug-In . SVG Version: 6.00 Build 0)  -->
<!DOCTYPE svg PUBLIC "-//W3C//DTD SVG 1.1//EN" "http://www.w3.org/Graphics/SVG/1.1/DTD/svg11.dtd">
<svg version="1.1" id="图层_1" xmlns="http://www.w3.org/2000/svg" xmlns:xlink="http://www.w3.org/1999/xlink" x="0px" y="0px"
	 width="174px" height="200px" viewBox="0 0 174 200" enable-background="new 0 0 174 200" xml:space="preserve">
<path fill="#FFFFFF" stroke="#C9C2C2" stroke-miterlimit="10" d="M110.346,85.682l12.038-8.621
	c20.764-14.866,32.198-34.543,32.198-55.408v-7.892H19.419v7.892c0,20.865,11.435,40.543,32.198,55.408l12.037,8.621
	c4.251,3.046,6.792,8.157,6.792,13.685v3.129c0,5.525-2.541,10.641-6.795,13.689l-12.034,8.617
	c-20.763,14.863-32.198,34.541-32.198,55.4v7.895h135.163v-7.895c0-20.859-11.435-40.537-32.198-55.4l-12.038-8.617
	c-4.253-3.049-6.791-8.164-6.791-13.689v-3.129C103.555,93.839,106.093,88.728,110.346,85.682"/>
<path fill="#CDD4DE" d="M145.438,176.732c-0.064-0.936-0.16-1.871-0.283-2.807c-1.96-14.773-12.033-27.238-25.659-31.764
	c-10.923-3.625-25.208-11.775-31.366-29.984V89.591l29.278-20.961c13.636-9.765,22.761-21.744,26.386-34.646l0.44-1.578H29.767
	l0.441,1.578c3.625,12.902,12.748,24.883,26.387,34.646l29.277,20.961v22.586c-6.159,18.209-20.445,26.359-31.365,29.979
	c-13.629,4.531-23.701,16.996-25.663,31.77c-0.123,0.936-0.217,1.871-0.282,2.807l-0.094,1.314h117.063L145.438,176.732z"/>
<path fill="#2A3A4D" d="M6.762,16.207h160.473c3.654,0,6.621-3.216,6.621-7.175c0-3.954-2.967-7.172-6.621-7.172H6.762
	c-3.651,0-6.619,3.218-6.619,7.172C0.144,12.991,3.111,16.207,6.762,16.207"/>
<path fill="#2A3A4D" d="M167.238,185.65H6.764c-3.65,0-6.621,3.221-6.621,7.18c0,3.949,2.971,7.17,6.621,7.17h160.475
	c3.649,0,6.618-3.221,6.618-7.17C173.856,188.871,170.888,185.65,167.238,185.65"/>
<path fill="#CDD4DE" d="M70.692,128.049c0,2.205-1.648,3.994-3.684,3.994c-2.038,0-3.687-1.789-3.687-3.994
	c0-2.201,1.648-3.994,3.687-3.994C69.044,124.055,70.692,125.848,70.692,128.049"/>
<path fill="#CDD4DE" d="M80.398,115.516c0,1.846-1.384,3.35-3.094,3.35c-1.706,0-3.092-1.504-3.092-3.35
	c0-1.852,1.386-3.354,3.092-3.354C79.015,112.162,80.398,113.664,80.398,115.516"/>
<path fill="#CDD4DE" d="M103.146,120.406c0,1.871-1.398,3.387-3.127,3.387c-1.724,0-3.124-1.516-3.124-3.387s1.4-3.389,3.124-3.389
	C101.747,117.018,103.146,118.535,103.146,120.406"/>
<path fill="#CDD4DE" d="M112.152,130.496c0,1.35-1.009,2.447-2.255,2.447c-1.251,0-2.261-1.098-2.261-2.447s1.01-2.447,2.261-2.447
	C111.144,128.049,112.152,129.146,112.152,130.496"/>
</svg>
