<?xml version="1.0" encoding="utf-8"?>
<!-- Generator: Adobe Illustrator 16.0.0, SVG Export Plug-In . SVG Version: 6.00 Build 0)  -->
<!DOCTYPE svg PUBLIC "-//W3C//DTD SVG 1.1//EN" "http://www.w3.org/Graphics/SVG/1.1/DTD/svg11.dtd">
<svg version="1.1" id="图层_1" xmlns="http://www.w3.org/2000/svg" xmlns:xlink="http://www.w3.org/1999/xlink" x="0px" y="0px"
	 width="230px" height="230px" viewBox="0 0 230 230" enable-background="new 0 0 230 230" xml:space="preserve">
<path fill="#E6E8ED" d="M92.752,92.479V42.077H48.81v50.402c-29.076,9.509-48.532,36.31-48.532,67.015
	C0.277,198.371,31.906,230,70.781,230s70.504-31.629,70.504-70.506C141.285,128.789,121.83,101.988,92.752,92.479"/>
<path fill="#EC6D58" d="M14.96,135.818c-3.081,7.313-4.755,15.324-4.755,23.676c0,33.4,27.174,60.572,60.578,60.572
	c33.403,0,60.577-27.172,60.577-60.572c0-8.352-1.676-16.363-4.756-23.676H14.96z"/>
<path fill="#E6E8ED" d="M170.086,42.077v14.502h4.434v65.257c0,14.078,11.447,25.531,25.523,25.531s25.525-11.453,25.525-25.531
	V56.579H230V42.077H170.086z"/>
<path fill="#57B6DD" d="M200.043,137.439c-8.602,0-15.598-7-15.598-15.598V71.414h31.195v50.428
	C215.641,130.439,208.645,137.439,200.043,137.439"/>
<path fill="#57B6DD" d="M200.043,137.318c-8.602,0-15.598-6.998-15.598-15.598V71.292h31.195v50.429
	C215.641,130.32,208.645,137.318,200.043,137.318"/>
<path fill="#31495D" d="M120.455,87.13c-8.602,0-15.599-7-15.599-15.602V22.984c0-8.616-7.009-15.618-15.62-15.618
	c-8.61,0-15.618,7.002-15.618,15.618v113.051h-5.673V22.984c0-11.744,9.551-21.293,21.291-21.293c11.74,0,21.29,9.549,21.29,21.293
	v48.544c0,5.473,4.457,9.929,9.929,9.929c5.475,0,9.926-4.456,9.926-9.929V37.943c0-19.989,16.262-36.252,36.252-36.252
	c19.986,0,36.244,16.263,36.244,36.252v33.411h-5.67V37.943c0-16.866-13.719-30.577-30.574-30.577
	c-16.863,0-30.578,13.711-30.578,30.577v33.585C136.055,80.129,129.057,87.13,120.455,87.13"/>
<path fill="#EC6D58" d="M53.023,118.992c0,4.111-3.333,7.445-7.445,7.445c-4.113,0-7.445-3.334-7.445-7.445
	c0-4.109,3.332-7.447,7.445-7.447C49.691,111.545,53.023,114.883,53.023,118.992"/>
<path fill="#FFFFFF" d="M65.786,173.232c0,4.109-3.333,7.443-7.446,7.443c-4.11,0-7.443-3.334-7.443-7.443
	c0-4.113,3.333-7.445,7.443-7.445C62.453,165.787,65.786,169.119,65.786,173.232"/>
<path fill="#FFFFFF" d="M202.877,97.937c0,2.704-2.188,4.896-4.895,4.896c-2.703,0-4.896-2.192-4.896-4.896
	c0-2.708,2.193-4.898,4.896-4.898C200.689,93.039,202.877,95.229,202.877,97.937"/>
<path fill="#EC6D58" d="M97.631,116.524c0,3.312-2.686,6.003-6.001,6.003c-3.317,0-6.003-2.691-6.003-6.003
	c0-3.32,2.687-6.007,6.003-6.007C94.945,110.518,97.631,113.204,97.631,116.524"/>
</svg>
