<svg t="1558888529533" class="icon" viewBox="0 0 1024 1024" version="1.1" xmlns="http://www.w3.org/2000/svg" p-id="2590" height="200" width="200"><path d="M855.5 345.9L616 106.5c-5.3-5.3-12.4-8.2-19.9-8.2H174.3c-7.8 0-14.1 6.3-14.1 14.1v801.9c0 7.8 6.3 14.1 14.1 14.1h675.3c7.8 0 14.1-6.3 14.1-14.1V365.8c0-7.5-2.9-14.7-8.2-19.9z m-53 514.8h-581v-695h376.6v204.2h204.3l0.1 490.8z" p-id="2591" fill="#ffffff"></path><path d="M520.2 632.7h-49v101.9H405V443.5h121.7c70.6 1.8 107.2 32.2 109.8 91.3 1 66.1-37.8 98.8-116.3 97.9z m-5.3-138.9h-43.7v88.6h43.7c34.4-0.9 52-15.9 52.9-45-0.9-28.2-18.5-42.7-52.9-43.6z" p-id="2592" fill="#ffffff"></path></svg>